<?xml version="1.0" encoding="UTF-8"?>
<svg id="Layer_1" data-name="Layer 1" xmlns="http://www.w3.org/2000/svg" version="1.1" viewBox="0 0 2040.9 148.4">
  <defs>
    <style>
      .cls-1 {
        fill: #1b3664;
      }

      .cls-1, .cls-2 {
        stroke-width: 0px;
      }

      .cls-2 {
        fill: #fff;
      }
    </style>
  </defs>
  <path class="cls-1" d="M375.1,81V9.2c0-3.7.9-4.9,4.7-4.8,9.5.3,19,.2,28.5,0,3.3,0,4.7.7,4.7,4.4-.1,43.3,0,86.7,0,130s-.9,4.3-4.3,4.3c-8.8-.2-17.7-.2-26.5,0-3.6.1-5.7-1.1-7.8-4-17.1-22.7-34.4-45.2-51.7-67.8-.8-1-1.7-2-2.8-3.4-1.1,2-.7,3.8-.7,5.5,0,21.6-.1,43.2,0,64.8,0,3.6-.8,5-4.7,4.9-9.7-.3-19.3-.2-29,0-3.1,0-4.4-.6-4.4-4.1.1-43.5,0-87,0-130.5s.7-4.1,3.9-4.1c9.5.2,19,.2,28.5,0,2.8,0,4.2,1.3,5.6,3.3,17.3,22.8,34.6,45.5,51.9,68.3,1.1,1.4,2.2,2.7,4.2,5h-.1Z"/>
  <path class="cls-1" d="M960,73.7v64.3c0,3.8-1,5.2-5,5.1-10.7-.3-21.3-.2-32,0-3.6,0-4.5-1.1-4.4-4.5.2-14.3,0-28.6,0-42.9s-.8-4.7-4.4-4.6c-13.5.2-27,.2-40.5,0-3.4,0-4.2,1.1-4.2,4.3v42.9c0,3.6-.9,4.9-4.7,4.8-10.7-.3-21.3-.2-32,0-3.3,0-4.8-.6-4.8-4.3,0-43.4,0-86.7,0-130.1s1-4.3,4.3-4.3c11,.2,22,.2,33,0,3.4,0,4.2,1.2,4.1,4.3v45.8c0,3.7.9,4.9,4.7,4.8,13.3-.2,26.6-.2,40,0,3.6,0,4.4-1.2,4.4-4.6-.2-15.3,0-30.6,0-45.8s.9-4.6,4.4-4.5c10.7.2,21.3.3,32,0,4.1-.1,5,1.3,5,5.1-.2,21.4,0,42.9,0,64.3h.1Z"/>
  <path class="cls-1" d="M558.7,73.6V9.8c0-4.1.7-5.8,5.4-5.8,34.3.2,68.6.2,102.9,0,4.1,0,5.5,1.2,5.4,5.3-.3,7.3-.3,14.6,0,21.9,0,4-1.3,5-5.1,5-20.6-.2-41.3,0-61.9-.2-4.1,0-5.7,1-5.3,5.3.3,4.1.3,8.3,0,12.4-.2,3.5,1,4.5,4.5,4.5,18.6-.2,37.3,0,55.9-.2,4.3,0,5.8,1,5.6,5.5-.4,7.1-.3,14.3,0,21.4,0,3.9-1,5.1-5,5.1-18.6-.2-37.3,0-55.9-.2-3.8,0-5.5.9-5,4.9.6,5.2-2.2,12,1.2,15.3,3.1,3.1,9.8.9,15,.9,17.6,0,35.3.2,52.9,0,4.3,0,5.4,1.4,5.3,5.4-.3,7.5-.2,14.9,0,22.4,0,2.8-.6,4.2-3.8,4.1-36,0-71.9-.1-107.9,0-3.8,0-3.8-2-3.8-4.7v-64.8l-.4.3h0Z"/>
  <path class="cls-1" d="M684.5,70.5c-.7-35.4,29.6-65.4,70.1-67,22.2-.9,41.5,6.1,58.4,20.4,3.3,2.8,3.9,4.8.7,8.3-6.3,6.8-12.2,14-18.1,21.2-2,2.4-3.1,2.6-5.3.2-7.2-7.9-15.7-13.9-26.7-15.3-16.7-2-31.3,8.6-35.4,25.4-4.8,19.5,5.4,39.1,23,44,12.9,3.6,23.8-1.3,34.2-8.3,2.8-1.9,4.7-6.4,8.2-5.4,2.8.8,4.8,4.4,7,6.8,4.8,5.1,9.5,10.2,14.4,15.3,1.6,1.6,1.9,2.7,0,4.5-32,32.4-83.1,32.7-111.8,2.1-12.8-13.6-18.5-30-18.6-52.1h-.1Z"/>
  <path class="cls-1" d="M0,72.2C-.7,34.6,30.1,5.1,69.8,3.5c22.4-.9,41.9,6,58.8,20.6,3,2.6,3.9,4.4.7,7.9-6.5,6.9-12.4,14.3-18.4,21.6-1.8,2.3-2.9,2.4-4.9,0-4.9-5.6-10.7-10-17.6-12.9-16.8-7.1-34-.6-42.1,15.7-10,20,0,45.3,20.1,51.1,13.1,3.8,24.2-1,34.6-8.4,8.1-5.8,8-6,14.9,1.4,4.8,5.1,9.5,10.3,14.4,15.3,1.7,1.7,2.1,2.9.1,4.8-32.8,32.8-84.2,32.2-112.6,1.1C5.4,108.2,0,92,0,72.2Z"/>
  <path class="cls-1" d="M200.9,60.1c7.1-13.5,13.6-26.3,20.4-39,3-5.5,4.2-13.3,9.4-15.9,5-2.5,12-.7,18.2-.7h17c3.7,0,4.8,1.6,3.1,4.8-14.6,27.7-29.2,55.5-43.9,83.2-2.6,4.8-3.9,9.6-3.7,15.1.3,10.1,0,20.2.2,30.4,0,3.7-.8,5.3-5,5.1-10.6-.3-21.3-.2-31.9,0-3.5,0-4.6-.9-4.5-4.4.2-11.1,0-22.2.1-33.4,0-3.3-.7-6.1-2.2-9-15.5-29-30.9-58-46.4-87-.7-1.3-1.3-2.6-2.4-4.8h7.3c9.3,0,18.7.3,27.9,0,5-.3,7.3,1.6,9.5,5.8,8,15.5,16.3,30.8,24.5,46.1.5,1,1.2,2,2.3,3.8h.1Z"/>
  <path class="cls-1" d="M486,4.5h56c3.8,0,4.9,1.1,4.8,4.8-.2,7.8-.3,15.6,0,23.4.2,4.1-1.5,5-5.2,4.9-9.7-.2-19.3,0-29,0s-6.6,2.3-6.6,6.8c0,31.1,0,62.1.1,93.2,0,4.5-1.1,5.9-5.7,5.8-10.1-.4-20.3-.4-30.5,0-4.9.2-5.7-1.6-5.7-5.9.2-31.2,0-62.5.2-93.7,0-5.1-1.4-6.5-6.4-6.3-9.6.4-19.3,0-29,.2-4.1,0-5.1-1.3-5-5.1.3-7.6.3-15.3,0-22.9-.1-3.9,1-5.1,5-5.1,19,.2,38,0,57,0h0Z"/>
  <g>
    <path class="cls-2" d="M1079.1,116.5h-59.2l-11,27.2h-40.4L1030.3,3.8h39l62,140h-41.2l-11-27.2h0ZM1067.5,87.3l-18-44.8-18,44.8h36Z"/>
    <path class="cls-2" d="M1275.7,3.8v140h-32.6l-61.8-74.6v74.6h-38.8V3.8h32.6l61.8,74.6V3.8h38.8Z"/>
    <path class="cls-2" d="M1296.5,73.7c0-42.6,32.6-72.8,77-72.8s46.6,9.4,60.2,26.4l-25.2,22.8c-8.8-10.6-19.6-16.4-33-16.4-23,0-39,16-39,40s16,40,39,40,24.2-5.8,33-16.4l25.2,22.8c-13.6,17-34.4,26.4-60.2,26.4-44.4,0-77-30.2-77-72.8h0Z"/>
    <path class="cls-2" d="M1584.5,3.8v140h-39.6v-54.6h-54v54.6h-39.6V3.8h39.6v52.6h54V3.8h39.6Z"/>
    <path class="cls-2" d="M1605.3,73.7c0-42,33-72.8,77.8-72.8s77.8,30.8,77.8,72.8-33,72.8-77.8,72.8-77.8-30.8-77.8-72.8ZM1720.9,73.7c0-24.2-16.6-40-37.8-40s-37.8,15.8-37.8,40,16.6,40,37.8,40,37.8-15.8,37.8-40Z"/>
    <path class="cls-2" d="M1842.9,106.5h-21.6v37.2h-39.6V3.8h64c38.2,0,62.2,19.8,62.2,51.8s-10,35.8-27.4,44.2l30.2,44h-42.4l-25.4-37.2h0ZM1843.3,35h-22v41h22c16.4,0,24.6-7.6,24.6-20.4s-8.2-20.6-24.6-20.6Z"/>
    <path class="cls-2" d="M1919.9,131.1l13-29.2c12.4,8.2,30,13.8,46.2,13.8s22.8-4.6,22.8-11.4c0-22.2-79.6-6-79.6-58S1942.7.9,1984.3.9s37,4.2,50.8,12.2l-12.2,29.4c-13.4-7.2-26.6-10.8-38.8-10.8s-22.6,5.6-22.6,12.6c0,21.4,79.4,5.4,79.4,57s-20.4,45.2-62,45.2-45.8-6.2-59-15.4h0Z"/>
  </g>
</svg>