<?xml version="1.0" encoding="UTF-8"?>
<svg id="Layer_1" data-name="Layer 1" xmlns="http://www.w3.org/2000/svg" version="1.1" viewBox="0 0 1662.9 140.7">
  <defs>
    <style>
      .cls-1 {
        fill: #1b3664;
      }

      .cls-1, .cls-2 {
        stroke-width: 0px;
      }

      .cls-2 {
        fill: #fdc70c;
      }
    </style>
  </defs>
  <path class="cls-1" d="M375.1,78.6c0-6.7,0-12.1,0-17.5,0-18.1,0-36.2,0-54.3,0-3.7.9-4.9,4.7-4.8,9.5.3,19,.2,28.5,0,3.3,0,4.7.7,4.7,4.4-.1,43.3,0,86.7,0,130,0,3.2-.9,4.3-4.3,4.3-8.8-.2-17.7-.2-26.5,0-3.6.1-5.7-1.1-7.8-4-17.1-22.7-34.4-45.2-51.7-67.8-.8-1-1.7-2-2.8-3.4-1.1,2-.7,3.8-.7,5.5,0,21.6-.1,43.2,0,64.8,0,3.6-.8,5-4.7,4.9-9.7-.3-19.3-.2-29,0-3.1,0-4.4-.6-4.4-4.1.1-43.5,0-87,0-130.5,0-2.9.7-4.1,3.9-4.1,9.5.2,19,.2,28.5,0,2.8,0,4.2,1.3,5.6,3.3,17.3,22.8,34.6,45.5,51.9,68.3,1.1,1.4,2.2,2.7,4.2,5Z"/>
  <path class="cls-2" d="M1337.7,77.9c1.2-2.8.7-5,.7-7.1,0-20.9.1-41.9,0-62.8,0-4.4,1.1-6.2,5.9-6.1,9,.3,18,.2,27,0,3.6,0,5,1.2,5,4.9,0,43,0,86,0,129,0,3.8-1.7,4.8-5.2,4.7-8.5-.2-17-.2-25.5,0-3.5,0-5.8-1.2-7.9-4-16.7-22.1-33.6-44.2-50.5-66.2-1.2-1.5-2.4-3-3.7-4.7-1.7,2.1-1.1,4-1.1,5.7,0,20.9-.2,41.9,0,62.8,0,5.1-1.5,6.7-6.5,6.5-8.8-.4-17.6-.2-26.5,0-3.6,0-5-1.1-5-4.8,0-43,0-86,0-129,0-3.8,1.6-4.8,5.1-4.7,8.5.2,17,.2,25.5,0,3.6,0,5.8,1.2,7.9,4,17,22.6,34.1,45,51.2,67.5,1,1.3,2.1,2.6,3.5,4.4Z"/>
  <path class="cls-1" d="M960,71.3c0,21.4,0,42.9,0,64.3,0,3.8-1,5.2-5,5.1-10.7-.3-21.3-.2-32,0-3.6,0-4.5-1.1-4.4-4.5.2-14.3,0-28.6.1-42.9,0-3.4-.8-4.7-4.4-4.6-13.5.2-27,.2-40.5,0-3.4,0-4.2,1.1-4.2,4.3.1,14.3,0,28.6.1,42.9,0,3.6-.9,4.9-4.7,4.8-10.7-.3-21.3-.2-32,0-3.3,0-4.8-.6-4.8-4.3.1-43.4,0-86.7,0-130.1,0-3.2,1-4.3,4.3-4.3,11,.2,22,.2,33,0,3.4,0,4.2,1.2,4.1,4.3-.1,15.3,0,30.6-.1,45.8,0,3.7.9,4.9,4.7,4.8,13.3-.2,26.6-.2,40,0,3.6,0,4.4-1.2,4.4-4.6-.2-15.3,0-30.6-.1-45.8,0-3.4.9-4.6,4.4-4.5,10.7.2,21.3.3,32,0,4.1-.1,5,1.3,5,5.1-.2,21.4,0,42.9,0,64.3Z"/>
  <path class="cls-2" d="M1440.6,53.6c8.9-10.2,17.9-20.5,26.8-30.7,5.1-5.9,10.3-11.8,15.4-17.7,1.6-1.8,3.2-3.2,5.9-3.2,13.8,0,27.6,0,41.4,0,.6,0,1.2.2,2.8.6-5.9,6.6-11.3,12.8-16.7,18.9-9.9,11.2-19.8,22.4-29.9,33.4-2.4,2.6-2.3,4.5-.4,7.3,15.9,24.3,31.7,48.7,47.5,73.1.8,1.3,2.8,2.6,1.7,4.3-1,1.5-3.1.7-4.7.7-12.6,0-25.3-.1-37.9.1-4,0-6.4-1.2-8.5-4.6-8.5-13.9-17.5-27.5-26.1-41.3-2.2-3.5-3.6-3.7-6.5-.6-11.9,12.7-12,12.6-12,30,0,4-.1,8,0,12,0,3.1-.9,4.6-4.3,4.5-10.8-.1-21.6-.2-32.5,0-4.7,0-4.4-2.9-4.4-6,0-27.2,0-54.4,0-81.7,0-15.1.1-30.2,0-45.3,0-4.4,1.4-5.8,5.8-5.7,10,.3,20,.2,30,0,4.1,0,5.6,1.2,5.5,5.4-.2,13.4,0,26.9,0,40.3,0,1.8,0,3.6,0,5.4.4.2.8.3,1.2.5Z"/>
  <path class="cls-1" d="M558.7,71.2c0-21.3,0-42.5,0-63.8,0-4.1.7-5.8,5.4-5.8,34.3.2,68.6.2,102.9,0,4.1,0,5.5,1.2,5.4,5.3-.3,7.3-.3,14.6,0,21.9.1,4-1.3,5-5.1,5-20.6-.2-41.3,0-61.9-.2-4.1,0-5.7,1-5.3,5.3.3,4.1.3,8.3,0,12.4-.2,3.5,1,4.5,4.5,4.5,18.6-.2,37.3,0,55.9-.2,4.3,0,5.8,1,5.6,5.5-.4,7.1-.3,14.3,0,21.4.1,3.9-1,5.1-5,5.1-18.6-.2-37.3,0-55.9-.2-3.8,0-5.5.9-5,4.9.6,5.2-2.2,12,1.2,15.3,3.1,3.1,9.8.9,15,.9,17.6,0,35.3.2,52.9,0,4.3,0,5.4,1.4,5.3,5.4-.3,7.5-.2,14.9,0,22.4,0,2.8-.6,4.2-3.8,4.1-36,0-71.9-.1-107.9,0-3.8,0-3.8-2-3.8-4.7,0-21.6,0-43.2,0-64.8Z"/>
  <path class="cls-2" d="M1605.8,0c18.3.2,35.5,4.3,51.9,12.6,4.7,2.4,5.4,4.7,3,9.2-3.9,7.3-7.5,14.8-10.9,22.4-1.5,3.3-3.1,3.1-5.7,1.7-10.2-5.3-20.8-9.8-32.1-12.2-4.7-1-9.5-1.8-14.3-.8-3.3.7-6.1,2-6.9,5.6-.9,3.6,1.2,6,3.7,8.1,2.6,2.1,5.8,3.3,9,4.3,9.1,2.8,18.2,5.4,27.2,8.3,3.6,1.2,7.2,2.7,10.6,4.5,14,7.1,21.7,18.3,21.7,34.2,0,18-8.7,30.7-25.1,37.8-18.5,8-37.6,7.5-56.8,3.3-13.8-3-26.7-8.2-38.4-16.3-2.9-2-3.5-3.9-1.9-7,3.7-7.2,7.4-14.5,10.7-21.9,1.9-4.1,3.5-5,7.5-2.1,12.7,9.2,26.8,15.3,42.5,17.6,3.7.5,7.3.4,10.9-.5,4-1,7.1-3.1,7.7-7.5.6-4.2-2-6.8-5.3-8.8-4.3-2.7-9.2-3.9-14-5.2-10.6-2.9-21.3-5.3-31.3-10.1-13.7-6.6-21.5-17.1-21.8-32.4-.3-15.7,6.6-27.9,20.2-35.9C1579.6,1.9,1592.5,0,1605.8,0Z"/>
  <path class="cls-1" d="M684.5,68.1c-.7-35.4,29.6-65.4,70.1-67,22.2-.9,41.5,6.1,58.4,20.4,3.3,2.8,3.9,4.8.7,8.3-6.3,6.8-12.2,14-18.1,21.2-2,2.4-3.1,2.6-5.3.2-7.2-7.9-15.7-13.9-26.7-15.3-16.7-2-31.3,8.6-35.4,25.4-4.8,19.5,5.4,39.1,23,44,12.9,3.6,23.8-1.3,34.2-8.3,2.8-1.9,4.7-6.4,8.2-5.4,2.8.8,4.8,4.4,7,6.8,4.8,5.1,9.5,10.2,14.4,15.3,1.6,1.6,1.9,2.7,0,4.5-32,32.4-83.1,32.7-111.8,2.1-12.8-13.6-18.5-30-18.6-52.1Z"/>
  <path class="cls-1" d="M0,69.8C-.7,32.2,30.1,2.7,69.8,1.1c22.4-.9,41.9,6,58.8,20.6,3,2.6,3.9,4.4.7,7.9-6.5,6.9-12.4,14.3-18.4,21.6-1.8,2.3-2.9,2.4-4.9.1-4.9-5.6-10.7-10-17.6-12.9-16.8-7.1-34-.6-42.1,15.7-10,20-.1,45.3,20.1,51.1,13.1,3.8,24.2-1,34.6-8.4,8.1-5.8,8-6,14.9,1.4,4.8,5.1,9.5,10.3,14.4,15.3,1.7,1.7,2.1,2.9.1,4.8-32.8,32.8-84.2,32.2-112.6,1.1C5.4,105.8,0,89.6,0,69.8Z"/>
  <path class="cls-1" d="M200.9,57.7c7.1-13.5,13.6-26.3,20.4-39,3-5.5,4.2-13.3,9.4-15.9,5-2.5,12-.7,18.2-.7,5.7,0,11.3,0,17,0q5.6,0,3.1,4.8c-14.6,27.7-29.2,55.5-43.9,83.2-2.6,4.8-3.9,9.6-3.7,15.1.3,10.1,0,20.2.2,30.4,0,3.7-.8,5.3-5,5.1-10.6-.3-21.3-.2-31.9,0-3.5,0-4.6-.9-4.5-4.4.2-11.1,0-22.2.1-33.4,0-3.3-.7-6.1-2.2-9-15.5-29-30.9-58-46.4-87-.7-1.3-1.3-2.6-2.4-4.8,2.9,0,5.1,0,7.3,0,9.3,0,18.7.3,27.9-.1,5-.3,7.3,1.6,9.5,5.8,8,15.5,16.3,30.8,24.5,46.1.5,1,1.2,2,2.3,3.8Z"/>
  <path class="cls-1" d="M486,2.1c18.7,0,37.3,0,56,0,3.8,0,4.9,1.1,4.8,4.8-.2,7.8-.3,15.6,0,23.4.2,4.1-1.5,5-5.2,4.9-9.7-.2-19.3,0-29,0q-6.6,0-6.6,6.8c0,31.1,0,62.1.1,93.2,0,4.5-1.1,5.9-5.7,5.8-10.1-.4-20.3-.4-30.5,0-4.9.2-5.7-1.6-5.7-5.9.2-31.2,0-62.5.2-93.7,0-5.1-1.4-6.5-6.4-6.3-9.6.4-19.3,0-29,.2-4.1.1-5.1-1.3-5-5.1.3-7.6.3-15.3,0-22.9-.1-3.9,1-5.1,5-5.1,19,.2,38,0,57,0Z"/>
  <path class="cls-2" d="M1033.2,2.1c18.5,0,37,.1,55.5,0,4.4,0,5.9,1.4,5.8,5.7-.3,7.5-.2,14.9,0,22.4,0,3.7-1.3,5-5,4.9-9.7-.2-19.3,0-29,0-6.8,0-6.8,0-6.8,7,0,30.6,0,61.1,0,91.7q0,6.9-6.8,7c-9.5,0-19-.3-28.5.1-5.1.2-6.6-1.7-6.6-6.6.2-31.1,0-62.1.2-93.2,0-4.8-1.3-6.3-6.1-6.1-9.6.4-19.3,0-29,.2-3.9,0-5.3-1.4-5.2-5.2.2-7.5.2-15,0-22.4-.1-4.2,1.6-5.4,5.6-5.4,18.7.1,37.3,0,56,0Z"/>
  <path class="cls-2" d="M1233.5,135.3c-17.7-43-35.5-86-53.2-129-1.2-3-2.9-4.4-6.3-4.3-11.2.2-22.3.2-33.5,0-3.6,0-5.4,1.3-6.7,4.5-4.5,10.9-9.2,21.7-13.8,32.6-13.7,32.1-27.4,64.2-41.1,96.3-2.2,5.1-2,5.2,3.4,5.2,10.8,0,21.7-.1,32.5,0,3.4,0,5.2-1.2,6.3-4.3,1.5-4.6,3.5-9,5-13.6,1-2.9,2.7-4.2,5.9-4.1,15.7.1,31.3.1,47,0,3.2,0,4.9,1.2,5.9,4.1,1.5,4.6,3.5,9,5,13.6,1,3.2,2.9,4.4,6.2,4.3,5.7-.2,11.3,0,17,0s11.3,0,17,0c5.5,0,5.6-.2,3.5-5.3ZM1168.7,88.8c-8.5,0-17,0-25.4,0-2.7,0-3.7-1-2.7-3.6,4.8-12.7,9.5-25.5,14.4-38.2.1-.4.7-.6,1.6-1.4,3.8,10.2,7.4,20.1,11.1,30,1.2,3.3,2.3,6.6,3.6,9.8.9,2.4,0,3.4-2.4,3.4Z"/>
</svg>