<?xml version="1.0" encoding="UTF-8"?>
<svg id="Layer_1" data-name="Layer 1" xmlns="http://www.w3.org/2000/svg" version="1.1" viewBox="0 0 1670 159">
  <defs>
    <style>
      .cls-1 {
        fill: #1b3664;
      }

      .cls-1, .cls-2 {
        stroke-width: 0px;
      }

      .cls-2 {
        fill: #fdc70c;
      }
    </style>
  </defs>
  <g id="Layer_2" data-name="Layer 2">
    <g>
      <path class="cls-1" d="M79.9,158.8c-19.8-.3-37.4-6.5-52.4-19.6-14.1-12.4-22.9-27.8-26.2-46.3-1-5.6-1.5-11.2-1.2-16.9,1-18.5,7.3-35,19.4-49,3.4-3.9,7.1-7.6,11.8-10,3.6-1.8,7.4-2.9,11.5-3.1,12.5-.6,22.1,4.5,28.7,15,2.5,4,3.7,8.5,3.9,13.2,0,2.4.5,2-2.1,2.5-5.9,1.2-11.2,3.6-15.8,7.5-7,5.9-11.2,13.4-12.5,22.5-2.4,17.5,8.9,34.1,25.9,38.5,11.7,3.1,22.4.5,31.8-7.3,6.5-5.4,10.4-12.5,11.9-20.7,1.8-10.5-.8-20-7.5-28.2-5.4-6.6-12.3-10.7-20.8-12.2-1.2-.2-1.8-.9-1.8-2.1V1.6q0-2,2.1-1.8c7.2.7,14.2,2.2,20.9,4.7,11.2,4.1,21,10.4,29.3,18.9,11.6,11.9,18.9,25.9,21.7,42.3.6,3.5.8,6.9,1,10.4.6,10.9-1.2,21.4-5.1,31.6-3.5,9.3-8.7,17.5-15.3,24.9-6.5,7.3-14.2,13.1-22.8,17.6-7.8,4-16,6.7-24.7,7.9-3.9.5-7.7.9-11.7.9v-.2h0Z"/>
      <path class="cls-1" d="M520.7,92.4V28.6c0-3-.2-2.6,2.5-2.6h28.1c2.2,0,2.2-.2,2.2,2.2v117.5c0,.8-.2,1.2-1.1,1.1h-27.6c-1.4,0-2.3-.4-3.2-1.6-16.1-21.2-32.2-42.3-48.3-63.4-.3-.4-.6-.9-1.4-1.1v62.8c0,20.1,0,1,0,1.4,0,1.1-.6,1.7-1.7,1.7h-29c-2.8,0-2.4,0-2.4-2.5V43.4c0-33.5,0-10.6,0-15.8s0-1.8,1.9-1.8h27.4c1.2,0,1.9.4,2.6,1.3,4.8,6.4,9.7,12.8,14.6,19.3,11.4,15,22.8,30,34.2,45,.3.4.6.7.9,1.1,0,0,.3,0,.4-.2h-.1Z"/>
      <path class="cls-1" d="M914.9,86.3V27.3c0-.9.3-1.4,1.2-1.3h32.4c2.6,0,2.4-.3,2.4,2.5v42.2c0,14.1,0,1,0,1.4,0,1.2.6,1.8,1.9,1.8h39.1c2,0,2.1,0,2.1-2.1V28.6c0-3.1-.3-2.7,2.7-2.7h32.1c.8,0,1.2.3,1.2,1.1v118.2c.2,1.3-.5,1.6-1.7,1.6h-32.6c-1.1,0-1.7-.6-1.7-1.9v-41c0-1.2-.6-1.8-1.9-1.8h-39.1c-2,0-2.1,0-2.1,2.1v41.5c0,1-.4,1.3-1.3,1.2h-33.5c-.8,0-1.2-.3-1.1-1.1v-59.5h-.1Z"/>
      <path class="cls-1" d="M680.2,86.5V28.7c0-2.9-.3-2.6,2.5-2.6h93.6c2.9,0,2.6-.3,2.6,2.5v22.5c0,2.9.4,2.7-2.6,2.7h-57.3c-3.2,0-2.9-.5-2.9,3v13.7c0,2.2,0,2.1,2.1,2.1h53.5c1.1,0,1.5.3,1.5,1.5v24.9c0,1-.3,1.5-1.3,1.4h-54c-1.7,0-1.8,0-1.8,1.7v15.6c0,1.2.4,1.5,1.5,1.5h60.7c2.9,0,2.6-.3,2.6,2.6v22.8c0,2.6.4,2.5-2.4,2.5h-97.2c-.7,0-1.1-.3-1-1v-59.5h0Z"/>
      <path class="cls-2" d="M1548.4,65.1v33.8c-.2,11.9-3.8,22.6-11.5,31.8-6,7.1-13.7,11.9-22.6,14.7-5.3,1.7-10.8,2.6-16.4,3-11.2.8-22-.4-32.4-4.7-16.5-6.9-26.4-19.4-29.5-37-.6-3.5-.9-6.9-.9-10.5V29.5c0-22.3,0-1,0-1.4,0-1.4.7-2.1,2.1-2.1h31.4c1.5,0,2.3.8,2.3,2.4v66.2c0,4.5.6,8.9,2.8,13,3.2,6,8.2,9.4,14.9,10.5,5,.9,9.7.2,14.1-2.4,6.2-3.7,8.9-9.5,9.7-16.5.5-4.1.3-8.3.3-12.4V29.5c0-19.1,0-1.1,0-1.7,0-1.2.6-1.8,1.9-1.8h31.7c1.4,0,2.1.7,2.1,2.1v36.9h0Z"/>
      <path class="cls-2" d="M1160.6,43.5c-6.8,8.3-13.5,16.4-20.3,24.7-1.9-1.5-3.6-3-5.5-4.3-7.5-5.2-15.7-8.5-24.9-8.7-14.6-.3-26.6,9.5-29.8,23.6-2.4,10.7-.5,20.6,6.6,29.2,4.8,5.8,11.2,9,18.7,10.2,7.6,1.2,14.5-1.1,21.4-3.8,1.2-.5,1.1-1.4,1.1-2.3v-24.5c0-3.6-.5-3.1,3.2-3.1h25.4c1.5,0,2.2.7,2.2,2.2v44.6c0,1.4-.4,2.3-1.7,3.1-8.8,5.5-18.3,9-28.3,11.5-5.3,1.3-10.8,2.2-16.3,2.6-13.2,1-25.8-1.2-37.5-7.3-17.1-8.9-27.7-22.9-31.6-41.9-.9-4.3-1.4-8.7-1.3-13.1.4-17.2,6.4-31.9,19.2-43.6,8.9-8.1,19.4-13.1,31.1-15.6,5.9-1.3,12-2,18-1.8,11.6.3,22.8,2.7,33.3,7.6,5.3,2.4,10.3,5.4,14.9,9.1.6.5,1.2,1,2,1.7h.1Z"/>
      <path class="cls-1" d="M288.3,71.1c-3.4-4-7-7.6-11.4-10.3-5.9-3.7-12.3-6.2-19.4-5.5-10.5,1-18.4,6.2-22.9,15.8-5.8,12.4-4.9,24.5,3.5,35.6,5.8,7.6,13.9,11,23.5,10.4,5.6-.3,10.7-2.4,15.5-5.2,3.8-2.1,7.2-4.7,10.2-7.8.8-.8,1.3-.9,2.1,0,3.9,4.3,7.9,8.5,11.9,12.8,2.2,2.3,4.4,4.6,6.6,7,1.5,1.6,1.5,1.7,0,3.2-11.9,11.6-25.9,19.2-42.5,21.2-19.3,2.3-36.8-2.6-51.5-15.6-9.3-8.2-15.2-18.6-18-30.7-1.3-5.4-2-11-1.8-16.6.9-22.6,10.7-40,30.4-51.4,9.2-5.3,19.2-7.8,29.8-8.5,18.9-1.1,35.5,4.7,50.1,16.5,1.4,1.1,2.7,2.5,4.1,3.7.7.7.8,1.2,0,2-6.6,7.7-13.1,15.4-19.6,23.2,0,0-.3,0-.6.3h0Z"/>
      <path class="cls-1" d="M884.5,103c1.9,2,3.6,3.7,5.3,5.5,4.8,5.1,9.5,10.1,14.2,15.2,1,1.1,1,2.1,0,3.2-11.7,11.6-25.6,19.1-42,21.2-18.4,2.4-35.4-2-50-13.8-11-8.9-17.7-20.6-20.5-34.5-1-4.8-1.6-9.6-1.4-14.5.9-23.1,11-40.7,31.5-52,8.9-4.9,18.6-7.3,28.8-7.9,18.9-1.1,35.5,4.7,50.1,16.5,1.4,1.1,2.6,2.4,3.9,3.5.9.8,1,1.4,0,2.3-3.4,3.9-6.7,7.9-10,11.9-3,3.6-6.1,7.2-9.1,10.8-.2.2-.3.6-.3.5-2.1-1.9-3.9-3.5-5.7-5.1-4.8-4.5-10.3-7.9-16.6-9.6-12.5-3.5-25.8,2.4-31.8,14-2.7,5.3-4.2,10.9-3.9,16.8.6,11.4,5,20.7,15.2,26.6,6.8,3.9,14,4.5,21.5,2.3,7.4-2.2,13.8-6.1,19.4-11.5.4-.4.8-.8,1.4-1.3h0Z"/>
      <path class="cls-1" d="M431.2,26c-1.4,2.6-2.5,5-3.8,7.3-3.6,6.8-7.2,13.5-10.7,20.3-5.4,10.3-10.9,20.6-16.3,30.9-4,7.6-8,15.3-12.1,22.9-.5,1-.5,2-.5,3v35.3c0,.9-.3,1.3-1.2,1.3h-33.4c-1,0-1.5-.2-1.4-1.3v-34.1c0-1.4-.3-2.6-1-3.8-4.3-8-8.6-16-12.8-24.1-5-9.4-10-18.7-15-28.1-4.3-8-8.6-16-12.8-24.1-.9-1.7-2-3.2-2.5-5.2.6-.4,1.3-.2,1.9-.2h31.9c1.7,0,2.4.7,3.1,1.9,6.5,12.3,13,24.5,19.6,36.8,1.7,3.1,3.3,6.2,5,9.3.2.3.3.6.8.7,1-1.8,2-3.7,3-5.5,6.8-13,13.6-26,20.2-39.1,1.5-2.9,3-4.1,6.5-4,10.4.3,20.8.1,31.7.1l-.2-.3h0Z"/>
      <path class="cls-1" d="M617,26h51.6c1.1-.1,1.6.2,1.6,1.4v25.9c0,1.4,0,1.5-2,1.5h-30.2c-3.4,0-3-.5-3,3.1v86.3c0,2.9.4,2.7-2.7,2.7h-32.6c-.7,0-1-.3-1-1V58.2c0-2.2-1.2-3.3-3.5-3.3h-30.2c-.7,0-1-.2-1-1v-25.4c0-2.8,0-2.4,2.5-2.4h50.6,0Z"/>
      <path id="circle" class="cls-2" d="M106.2,79.1c.5,13.7-11,26.4-26.2,26.4s-26.5-11.2-26.5-26.4,14-26.5,26.5-26.4c14.9,0,26.6,12.6,26.2,26.4Z"/>
      <path class="cls-2" d="M1262.8,107.4c.7-.4,1.1-.7,1.5-.9,7.8-5,13.3-11.9,16.2-20.7,3.2-10,3.5-20.2.7-30.4-2.6-9.6-8.3-16.8-16.8-21.8-9.3-5.5-19.5-7.3-30.1-7.5-18.7-.2-37.4,0-56.1,0h-1.4c-.9,0-1.3.4-1.3,1.3v118.4c0,.8.3,1.2,1.1,1.2h33.6c.9,0,1.3-.3,1.3-1.2v-29.5c0-1.8,0-1.9,1.8-1.9h15.1c1.5,0,2.1.6,2.7,1.8,4.7,9.6,9.5,19.2,14.1,28.8.8,1.6,1.7,2.1,3.4,2.1h36c.7,0,1.4.1,2.4-.3-8.1-13.2-16.2-26.2-24.2-39.3h0ZM1245.9,80.3c-3,4.3-7.4,6-12.4,6.1-6.7.2-13.4,0-20.1,0s-1.8,0-1.8-1.9v-29c0-1.1.6-1.7,1.7-1.7,6.6,0,13.3-.2,19.9,0,5.2.2,9.9,1.8,13,6.4,3.7,5.5,3.5,14.6-.2,20h0Z"/>
      <path class="cls-2" d="M1424.2,80.3c-.7-7.3-2.5-14.3-5.8-20.8-6.7-13.4-17.2-22.9-30.9-28.7-11-4.6-22.5-6.2-34.4-5.4-11.8.8-22.7,4-32.7,10.3-9,5.7-16.1,13.3-21,22.8-4.5,8.8-6.7,18.2-6.4,28.6,0,3.1,0,6.6.6,10.1,4.6,24.5,19.1,40.3,42.5,48.2,9.1,3.1,18.6,3.9,28.3,3.2,10.3-.8,20-3.3,28.9-8.4,13.7-7.7,23.3-19,28.2-34,2.7-8.4,3.4-17,2.6-25.7v-.2h.1ZM1379.2,109.4c-4.2,4.7-9.5,7.7-15.8,8.7-12.6,2.1-24.1-5.3-29.5-15.3-2.4-4.4-3.8-9.1-4-14.1-.6-13.5,4.7-24,16.7-30.4,10.6-5.6,23-3.6,31.4,4.7,6.7,6.5,9.4,14.6,9.6,23.1-.2,9.2-2.6,16.9-8.4,23.3h0Z"/>
      <path class="cls-2" d="M1668.7,56.8c-2.7-11.2-9-19.5-19.4-24.8-8.3-4.2-17.2-5.8-26.4-5.9-18.1-.2-36.1,0-54.2,0s-2.8-.4-2.8,2.8v116.7c0,.9.3,1.4,1.2,1.3h33.6c.8,0,1.2-.3,1.2-1.1v-29.3c0-2.2,0-2.3,2.2-2.3h18c7.2,0,14.3-1.1,21.1-3.5,8.3-3,15-7.9,19.9-15.4,5.1-7.8,6.6-16.5,6.9-25.5,0-4.4-.3-8.8-1.4-13h.1ZM1634.3,78.5c-2.5,5.4-7.3,7.7-13,7.9-5.9.3-11.8,0-17.7,0s-1.5-.4-1.5-1.5v-29.3c0-1.2.6-1.8,1.9-1.9h16.3c4.4,0,8.5,1.2,11.7,4.6,1,1.1,1.8,2.2,2.4,3.5,2.4,5.5,2.4,11.1,0,16.4v.3h-.1Z"/>
    </g>
  </g>
</svg>