<?xml version="1.0" encoding="UTF-8"?>
<svg id="Layer_1" data-name="Layer 1" xmlns="http://www.w3.org/2000/svg" version="1.1" viewBox="0 0 159.5 159.2">
  <defs>
    <style>
      .cls-1 {
        fill: #1b3664;
      }

      .cls-1, .cls-2 {
        stroke-width: 0px;
      }

      .cls-2 {
        fill: #fdc70c;
      }
    </style>
  </defs>
  <g id="Layer_2" data-name="Layer 2">
    <g>
      <path class="cls-1" d="M79.8,159.2c-19.8-.3-37.4-6.5-52.4-19.6-14.1-12.4-22.9-27.8-26.2-46.3C.2,87.7-.3,82.1,0,76.4c1-18.5,7.3-35,19.4-49,3.4-3.9,7.1-7.6,11.8-10,3.6-1.8,7.4-2.9,11.5-3.1,12.5-.6,22.1,4.5,28.7,15,2.5,4,3.7,8.5,3.9,13.2,0,2.4.5,2-2.1,2.5-5.9,1.2-11.2,3.6-15.8,7.5-7,5.9-11.2,13.4-12.5,22.5-2.4,17.5,8.9,34.1,25.9,38.5,11.7,3.1,22.4.5,31.8-7.3,6.5-5.4,10.4-12.5,11.9-20.7,1.8-10.5-.8-20-7.5-28.2-5.4-6.6-12.3-10.7-20.8-12.2q-1.8-.3-1.8-2.1V2C84.4,0,84.5,0,86.5.2c7.2.7,14.2,2.2,20.9,4.7,11.2,4.1,21,10.4,29.3,18.9,11.6,11.9,18.9,25.9,21.7,42.3.6,3.5.8,6.9,1,10.4.6,10.9-1.2,21.4-5.1,31.6-3.5,9.3-8.7,17.5-15.3,24.9-6.5,7.3-14.2,13.1-22.8,17.6-7.8,4-16,6.7-24.7,7.9-3.9.5-7.7.9-11.7.9v-.2Z"/>
      <path class="cls-2" d="M106.1,79.5c.5,13.7-11,26.4-26.2,26.4s-26.5-11.2-26.5-26.4,14-26.5,26.5-26.4c14.9,0,26.6,12.6,26.2,26.4Z"/>
    </g>
  </g>
</svg>