<?xml version="1.0" encoding="UTF-8"?>
<svg id="Layer_1" data-name="Layer 1" xmlns="http://www.w3.org/2000/svg" version="1.1" viewBox="0 0 1658.8 169.9">
  <defs>
    <style>
      .cls-1 {
        fill: #1b3664;
      }

      .cls-1, .cls-2 {
        stroke-width: 0px;
      }

      .cls-2 {
        fill: #fdc70c;
      }
    </style>
  </defs>
  <path class="cls-1" d="M146,164.9l-.5-85.7-41.6,69.7h-20.3l-41.3-67.4v83.4H0V3.2h37.6l56.8,93.3L149.9,3.2h37.6l.5,161.7h-42Z"/>
  <path class="cls-1" d="M238.7,157.3c-13.6-7.2-24.3-17.2-32.1-30-7.8-12.8-11.7-27.2-11.7-43.2s3.9-30.4,11.7-43.2c7.8-12.8,18.5-22.8,32.1-30,13.6-7.2,29-10.9,46.1-10.9s32.4,3.6,46.1,10.9c13.6,7.2,24.3,17.2,32.1,30,7.8,12.8,11.7,27.2,11.7,43.2s-3.9,30.4-11.7,43.2c-7.8,12.8-18.5,22.8-32.1,30-13.6,7.2-29,10.9-46.1,10.9s-32.4-3.6-46.1-10.9ZM306.9,124.5c6.6-3.8,11.9-9.3,15.7-16.3,3.8-7,5.8-15,5.8-24.1s-1.9-17.1-5.8-24.1c-3.9-7-9.1-12.4-15.7-16.3-6.6-3.8-14-5.8-22.2-5.8s-15.6,1.9-22.2,5.8c-6.6,3.9-11.9,9.3-15.7,16.3-3.9,7-5.8,15.1-5.8,24.1s1.9,17.1,5.8,24.1c3.8,7,9.1,12.4,15.7,16.3,6.6,3.9,14,5.8,22.2,5.8s15.6-1.9,22.2-5.8Z"/>
  <path class="cls-1" d="M427,39.5h-49.7V3.2h144.8v36.3h-49.4v125.4h-45.7V39.5Z"/>
  <path class="cls-1" d="M534.7,3.2h45.7v161.7h-45.7V3.2Z"/>
  <path class="cls-1" d="M635.9,157.3c-13.6-7.2-24.3-17.2-32.1-30-7.8-12.8-11.7-27.2-11.7-43.2s3.9-30.4,11.7-43.2c7.8-12.8,18.5-22.8,32.1-30,13.6-7.2,29-10.9,46.1-10.9s32.4,3.6,46.1,10.9c13.6,7.2,24.3,17.2,32.1,30,7.8,12.8,11.7,27.2,11.7,43.2s-3.9,30.4-11.7,43.2c-7.8,12.8-18.5,22.8-32.1,30-13.6,7.2-29,10.9-46.1,10.9s-32.4-3.6-46.1-10.9ZM704.2,124.5c6.6-3.8,11.9-9.3,15.7-16.3,3.8-7,5.8-15,5.8-24.1s-1.9-17.1-5.8-24.1c-3.9-7-9.1-12.4-15.7-16.3-6.6-3.8-14-5.8-22.2-5.8s-15.6,1.9-22.2,5.8c-6.6,3.9-11.9,9.3-15.7,16.3-3.9,7-5.8,15.1-5.8,24.1s1.9,17.1,5.8,24.1c3.8,7,9.1,12.4,15.7,16.3,6.6,3.9,14,5.8,22.2,5.8s15.6-1.9,22.2-5.8Z"/>
  <path class="cls-1" d="M937.2,3.2v161.7h-37.6l-71.4-86.1v86.1h-44.8V3.2h37.6l71.4,86.1V3.2h44.8Z"/>
  <path class="cls-2" d="M982.5,163.3c-12.3-3.2-22.3-7.5-30-12.9l15-33.7c7.2,4.8,15.6,8.6,25.2,11.5,9.5,2.9,18.9,4.4,28.2,4.4,17.6,0,26.3-4.4,26.3-13.2s-2.5-8-7.5-10.3c-5-2.2-13-4.6-24.1-7-12.2-2.6-22.3-5.4-30.5-8.4-8.2-3-15.2-7.8-21-14.4-5.9-6.6-8.8-15.5-8.8-26.8s2.7-18.7,8.1-26.7c5.4-7.9,13.4-14.2,24.1-18.8,10.7-4.6,23.8-6.9,39.4-6.9s21.1,1.2,31.4,3.6c10.3,2.4,19.4,5.9,27.3,10.5l-14.1,34c-15.4-8.3-30.3-12.5-44.8-12.5s-15.7,1.3-19.9,4c-4.2,2.7-6.2,6.2-6.2,10.5s2.5,7.5,7.4,9.7c4.9,2.2,12.9,4.4,23.8,6.7,12.3,2.6,22.5,5.4,30.6,8.4,8.1,3,15.1,7.8,21,14.3,5.9,6.5,8.9,15.4,8.9,26.7s-2.7,18.5-8.1,26.3c-5.4,7.9-13.5,14.1-24.3,18.8-10.8,4.7-23.9,7-39.3,7s-25.8-1.6-38.1-4.9Z"/>
  <path class="cls-2" d="M1145.3,39.5h-49.7V3.2h144.8v36.3h-49.4v125.4h-45.7V39.5Z"/>
  <path class="cls-2" d="M1382.7,129.6v35.3h-129.8V3.2h126.8v35.3h-81.5v27.3h71.8v34.2h-71.8v29.6h84.5Z"/>
  <path class="cls-2" d="M1522.7,129.6v35.3h-129.8V3.2h126.8v35.3h-81.5v27.3h71.8v34.2h-71.8v29.6h84.5Z"/>
  <path class="cls-2" d="M1532.9,3.2h45.7v125.4h77.1v36.3h-122.9V3.2Z"/>
</svg>